<?xml version="1.0" encoding="utf-8"?>
<!-- Uploaded to: SVG Repo, www.svgrepo.com, Generator: SVG Repo Mixer Tools -->
<svg width="800px" height="800px" viewBox="0 0 32 32" fill="none" xmlns="http://www.w3.org/2000/svg">
<g clip-path="url(#clip0_901_896)">
<path d="M16.0002 25V19C16.0002 19 10.0002 16 11.0002 14C13.0002 10 16.0002 8 18.0002 7C20.0002 12 25.0002 14 25.0002 14M8.00019 16H2.00019M7.00019 12H1.00019M1.34589 22.9893C1.12189 23.6183 0.999886 24.2953 0.999886 25.0003C0.999886 28.3133 3.68689 31.0003 6.99989 31.0003C10.3139 31.0003 12.9999 28.3133 12.9999 25.0003C12.9999 22.9283 11.9509 21.0783 10.3559 20.0003H2.99989M13.0002 17.1582C13.0002 17.1582 14.6872 13.0002 19.6872 10.0002M31.0002 25C31.0002 21.687 28.3132 19 25.0002 19C21.6872 19 19.0002 21.687 19.0002 25C19.0002 28.313 21.6872 31 25.0002 31C28.3132 31 31.0002 28.313 31.0002 25ZM23.0002 3C23.0002 1.896 22.1042 1 21.0002 1C19.8962 1 19.0002 1.896 19.0002 3C19.0002 4.104 19.8962 5 21.0002 5C22.1042 5 23.0002 4.104 23.0002 3Z" stroke="#000000" stroke-width="2" stroke-linecap="round" stroke-linejoin="round"/>
</g>
<defs>
<clipPath id="clip0_901_896">
<rect width="32" height="32" fill="white"/>
</clipPath>
</defs>
</svg>